<svg id="lotus-position_1_" data-name="lotus-position (1)" xmlns="http://www.w3.org/2000/svg" viewBox="0 0 605.357 606.537">
  <defs>
    <style>
      .cls-1 {
        fill: none;
      }

      .cls-2 {
        fill: #ebf1f2;
      }

      .cls-3 {
        fill: #d38957;
      }

      .cls-4 {
        fill: #c18053;
      }

      .cls-5 {
        fill: #ba634f;
      }

      .cls-6 {
        fill: #aa5b4b;
      }

      .cls-7 {
        fill: #33160a;
      }

      .cls-8 {
        fill: #714e7c;
      }

      .cls-9 {
        fill: #a076ab;
      }
    </style>
  </defs>
  <path id="Path_1" data-name="Path 1" class="cls-1" d="M0,303.269C0,135.8,135.541,0,302.679,0S605.357,135.8,605.357,303.269,469.817,606.537,302.679,606.537,0,470.733,0,303.269Z"/>
  <path id="Path_2" data-name="Path 2" class="cls-2" d="M193.9,370.1l2.806,24.814L260.023,410.8l63.2-15.891,2.928-24.814Z" transform="translate(42.655 82.297)"/>
  <path id="Path_3" data-name="Path 3" class="cls-3" d="M223.518,383.912c32.818,18.335,70.027,38.871,79.543,40.582,40.016,7.09,69.539,27.137,66.245,35.2,0,0-94.671-13.69-164.088-27.748C178.378,426.572,198.02,369.732,223.518,383.912Z" transform="translate(42.318 84.865)"/>
  <path id="Path_4" data-name="Path 4" class="cls-2" d="M241.959,390.889c-25.5-14.3-48.311-27.259-53.679-29.337-20.13-7.7-67.221-25.3-77.835,9.779s25.254,41.927,51,51.828c12.444,4.767,35.5,10.268,62.341,15.646A186.626,186.626,0,0,1,241.959,390.889Z" transform="translate(23.876 77.888)"/>
  <path id="Path_5" data-name="Path 5" class="cls-3" d="M304.634,383.912c-32.818,18.335-70.027,38.871-79.543,40.582-40.016,7.09-69.539,27.137-66.245,35.2,0,0,94.671-13.69,164.088-27.748C349.651,426.572,330.009,369.732,304.634,383.912Z" transform="translate(34.889 84.865)"/>
  <g id="Group_1" data-name="Group 1" transform="translate(236.555 211.958)">
    <path id="Path_6" data-name="Path 6" class="cls-2" d="M278.3,390.889c25.5-14.3,48.311-27.259,53.679-29.337,20.13-7.7,67.221-25.3,77.835,9.779s-25.254,41.927-51,51.828c-12.444,4.767-35.5,10.268-62.341,15.646A186.622,186.622,0,0,0,278.3,390.889Z" transform="translate(-175.333 -134.07)"/>
    <path id="Path_7" data-name="Path 7" class="cls-2" d="M323.219,252.854c4.514-27.5-17.934-77.62-17.934-77.62a256.061,256.061,0,0,0-30.378-1.834H244.9a280.988,280.988,0,0,0-30.256,1.834s-22.448,50.117-17.934,77.62c4.148,25.67,11.468,63.2-2.806,160.985H326.147C311.751,316.05,319.071,278.523,323.219,252.854Z" transform="translate(-193.9 -173.4)"/>
  </g>
  <g id="Group_2" data-name="Group 2" transform="translate(95.647 213.914)">
    <path id="Path_8" data-name="Path 8" class="cls-3" d="M134.275,391.725,78.4,357.866l7.2-4.156,46.969,17.48,40.016-55.984c8.418-22,7.2-119.669,28.914-131.038C216.991,175.978,240.17,175,240.17,175s-10.248,54.517-16.47,54.762S218.577,247,213.209,269.733c-2.44,21.514-4.148,38.26-8.906,52.073Z" transform="translate(-78.4 -175)"/>
    <path id="Path_9" data-name="Path 9" class="cls-3" d="M134.27,342.226l-18.544-1.956,6.71-16.5L111.7,318.023l3.538-4.523,16.47,4.034Z" transform="translate(-71.074 -144.202)"/>
    <path id="Path_10" data-name="Path 10" class="cls-3" d="M98.2,336.258l10.492,1.345,4.148-13.691,9.028-3.3-1.1-5.012-12.688.367Z" transform="translate(-74.044 -143.736)"/>
    <path id="Path_11" data-name="Path 11" class="cls-3" d="M391.095,391.725l55.875-33.859-7.2-4.156L392.8,371.189l-40.016-55.984c-8.418-22-7.2-119.669-28.914-131.037C308.38,175.978,285.2,175,285.2,175s10.248,54.517,16.47,54.762,5.124,17.235,10.492,39.971c2.44,21.514,4.148,38.26,8.906,52.073Z" transform="translate(-32.907 -175)"/>
    <path id="Path_12" data-name="Path 12" class="cls-3" d="M366,342.226l18.544-1.956-6.71-16.5,10.736-5.745-3.538-4.523-16.47,4.034Z" transform="translate(-15.132 -144.202)"/>
    <path id="Path_13" data-name="Path 13" class="cls-3" d="M402.268,336.258,391.776,337.6l-4.148-13.691-9.028-3.3,1.1-5.012,12.688.367Z" transform="translate(-12.36 -143.736)"/>
  </g>
  <path id="Path_14" data-name="Path 14" class="cls-4" d="M271.882,150.9H231.5c6.344,19.069.488,27.748.488,27.748s1.22,12.468,19.764,12.468,19.642-12.468,19.642-12.468S265.538,169.847,271.882,150.9Z" transform="translate(50.927 33.555)"/>
  <path id="Path_15" data-name="Path 15" class="cls-3" d="M296.937,116.062c0-48.039-18.544-59.162-41.358-59.162s-41.48,11-41.48,59.162c0,16.257,2.928,28.97,7.32,38.871,9.516,21.636,26.108,29.215,34.16,29.215s24.644-7.579,34.16-29.215C294.009,145.155,296.937,132.442,296.937,116.062Z" transform="translate(47.099 12.653)"/>
  <path id="Path_16" data-name="Path 16" class="cls-5" d="M261.824,145.883a26.848,26.848,0,0,1-23.424,0c0-.733,3.66-5.012,6.222-5.378,1.586-.244,5.49,1.345,5.49,1.345s3.9-1.589,5.368-1.345C258.164,140.871,261.824,145.883,261.824,145.883Z" transform="translate(52.445 31.238)"/>
  <path id="Path_17" data-name="Path 17" class="cls-6" d="M261.824,145.235S256.578,150,250.112,150s-11.712-4.767-11.712-4.767,1.22-1.467,8.052-1.834c1.1-.122,2.684.856,3.66.856.854,0,2.2-.978,3.172-.856C260.482,143.769,261.824,145.235,261.824,145.235Z" transform="translate(52.445 31.885)"/>
  <g id="Group_3" data-name="Group 3" transform="translate(259.613 57.084)">
    <path id="Path_18" data-name="Path 18" class="cls-7" d="M230.2,61.613c0-8.19,9.76-14.913,21.838-14.913s21.838,6.723,21.838,14.913-9.76,14.913-21.838,14.913S230.2,69.925,230.2,61.613Z" transform="translate(-208.972 -46.7)"/>
    <path id="Path_19" data-name="Path 19" class="cls-7" d="M298.687,118.118C298.687,70.079,285.511,57,255.744,57S212.8,70.079,212.8,118.118c0,0,63.683-13.813,63.683-31.293C276.605,104.306,298.687,118.118,298.687,118.118Z" transform="translate(-212.8 -44.41)"/>
  </g>
  <g id="Group_4" data-name="Group 4" transform="translate(256.437 130.182)">
    <path id="Path_20" data-name="Path 20" class="cls-3" d="M210.933,122c2.2,13.079,5,13.69,9.028,13.079l-4.27-28.481C211.787,107.211,208.737,108.922,210.933,122Z" transform="translate(-210.197 -106.478)"/>
    <path id="Path_21" data-name="Path 21" class="cls-3" d="M282.17,106.5l-4.27,28.481c3.9.733,6.71.122,9.028-13.079C289.124,108.945,286.2,107.233,282.17,106.5Z" transform="translate(-195.303 -106.5)"/>
  </g>
  <g id="Group_5" data-name="Group 5" transform="translate(259.613 126.759)">
    <path id="Path_22" data-name="Path 22" class="cls-7" d="M217.68,109.812a21.154,21.154,0,0,1-.244-3.667,11.111,11.111,0,0,1,.244-2.445l-4.88,1.834v2.2a15.3,15.3,0,0,0,1.464-.489h-.122a33.381,33.381,0,0,1,2.318,5.5S218.412,114.212,217.68,109.812Z" transform="translate(-212.8 -103.7)"/>
    <path id="Path_23" data-name="Path 23" class="cls-7" d="M279.574,106.145a20.466,20.466,0,0,1-.244,3.667c-.732,4.4,1.22,2.934,1.22,2.934a28.316,28.316,0,0,1,2.318-5.5,8.521,8.521,0,0,1,1.342.489v-2.2l-4.88-1.834s.122.978.244,2.445" transform="translate(-198.201 -103.7)"/>
  </g>
  <ellipse id="Ellipse_1" data-name="Ellipse 1" class="cls-8" cx="23.668" cy="23.714" rx="23.668" ry="23.714" transform="translate(279.011 49.139)"/>
  <ellipse id="Ellipse_2" data-name="Ellipse 2" class="cls-9" cx="16.592" cy="16.624" rx="16.592" ry="16.624" transform="translate(286.087 56.229)"/>
</svg>
